<mxfile host="app.diagrams.net" modified="2023-09-18T00:11:23.307Z" agent="Mozilla/5.0 (Windows NT 10.0; Win64; x64; rv:109.0) Gecko/20100101 Firefox/117.0" version="21.7.5" etag="BzpMaTHiEoTszcFUdKyD" type="github">
  <diagram name="Page-1" id="4vjETm22m08uAGTavZK2">
    <mxGraphModel>
      <root>
        <mxCell id="0" />
        <mxCell id="1" parent="0" />
      </root>
    </mxGraphModel>
  </diagram>
</mxfile>
